<?xml version="1.0" encoding="utf-8"?>
<!-- Generator: Adobe Illustrator 19.0.0, SVG Export Plug-In . SVG Version: 6.00 Build 0)  -->
<svg version="1.1" id="Livello_1" xmlns="http://www.w3.org/2000/svg" xmlns:xlink="http://www.w3.org/1999/xlink" x="0px" y="0px"
	 viewBox="0 0 250 250" enable-background="new 0 0 250 250" xml:space="preserve">
<path id="XMLID_30_" fill="#1D1D1B" d="M206.788,189.38c-9.721-6.401-20.334-10.758-31.141-14.822
	c-5.083-1.912-10.202-3.879-14.949-6.472c-2.44-1.333-5.438-3.857-5.866-6.256c-1.461-8.2-3.079-16.731,3.132-24.088
	c1.09-1.291,1.784-2.909,2.783-4.287c0.597-0.823,1.311-1.696,2.179-2.165c6.595-3.565,12.05-8.401,16.711-14.25
	c0.8-1.004,2.393-1.791,3.692-1.913c5.491-0.513,8.862-2.902,9.789-8.312c0.807-4.711,0.826-9.556,1.218-14.34
	c0.583-7.108-0.851-13.059-8.744-15.106c3.552-34.027-24.131-63.244-57.004-65.087c-16.051-0.9-30.41,3.98-42.661,14.36
	C70.281,39.9,63.249,56.981,64.754,77.32c-6.866,2.436-9.212,5.692-9.032,12.544c0.132,5.021,0.105,10.086,0.787,15.043
	c1.329,9.664,7.62,11.51,15.539,9.427c2.744-0.722,3.836-2.652,3.536-5.594c-0.39-3.823-0.44-7.681-0.665-11.522
	c-0.293-5.014-0.439-10.047-1.007-15.03c-0.225-1.977-1.865-3.799-2.058-5.771c-0.331-3.386-0.292-6.86,0.043-10.252
	c2.83-28.638,31.137-50.166,59.92-46.492c22.993,2.934,48.823,23.595,46.579,56.109c-0.055,0.796-0.422,1.577-0.685,2.35
	c-0.599,1.759-1.645,3.479-1.767,5.266c-0.612,8.955-0.972,17.927-1.463,26.891c-0.044,0.805-0.145,1.81-0.631,2.354
	c-2.673,2.987-5.474,5.859-8.231,8.771c-0.425-0.204-0.85-0.408-1.276-0.613c1.053-4.091,1.686-8.351,3.246-12.239
	c3.153-7.859,5.301-15.719,3.534-24.265c-0.701-3.389-1.244-6.832-1.538-10.278c-0.289-3.391-0.021-6.826-0.256-10.224
	c-1.107-15.961-11.561-29.95-26.227-34.792c-11.25-3.714-22.716-3.809-34.083-0.606c-9.758,2.749-17.396,8.53-22.426,17.451
	c-4.517,8.01-6.34,16.67-6.032,25.842c0.107,3.179,0.678,6.674-0.373,9.5c-3.719,9.991-1.164,19.047,2.955,28.087
	c0.685,1.502,1.261,3.159,1.403,4.786c0.707,8.073,1.971,16.08,7.062,22.611c4.416,5.666,5.47,11.803,4.713,18.59
	c-0.071,0.636-0.119,1.285-0.083,1.922c0.287,5.075-2.069,8.699-6.446,10.876c-4.29,2.133-8.695,4.082-13.18,5.763
	c-10.902,4.085-21.734,8.226-31.631,14.547c-13.266,8.473-19.167,20.771-19.353,36.129c-0.121,9.964,2.283,12.326,12.227,12.329
	c58.185,0.016,116.369,0.015,174.554-0.019c2.118-0.001,4.266-0.254,6.346-0.664c2.876-0.567,4.612-2.323,5.193-5.343
	C226.216,219.013,222.769,199.904,206.788,189.38z M182.984,84.951c3.135-0.595,4.293,1.019,4.263,3.282
	c-0.071,5.419-0.355,10.84-0.719,16.249c-0.185,2.753-2.062,3.109-4.656,2.401C182.238,99.655,182.607,92.379,182.984,84.951z
	 M63.57,104.303c-0.427-5.203-0.637-10.428-0.762-15.649c-0.062-2.609,1.054-4.331,4.297-3.71c0.367,7.536,0.734,15.055,1.1,22.575
	C64.817,108.687,63.766,106.697,63.57,104.303z M213.413,229.801c-22.565-0.085-45.131-0.029-67.697-0.027
	c-35.292,0.003-70.585-0.001-105.878-0.005c-1.39,0-2.783-0.093-4.17-0.032c-2.078,0.092-2.896-0.987-2.935-2.908
	c-0.254-12.415,3.139-23.2,13.693-30.822c10.087-7.285,21.683-11.332,33.145-15.737c5.35-2.056,10.606-4.495,15.597-7.306
	c5.43-3.058,7.898-8.193,8.092-14.406c0.027-0.855,0.051-1.712,0.134-2.563c0.803-8.249,0.15-16.015-5.533-22.828
	c-4.707-5.642-5.784-12.709-6.191-19.834c-0.166-2.898-0.786-5.44-2.433-8.052c-3.205-5.082-5.226-11.53-3.441-16.827
	c2.541-7.539,1.516-14.894,1.944-22.317c1.074-18.628,14.303-32.013,32.964-32.623c5.393-0.176,10.95,0.113,16.209,1.232
	c14.532,3.092,24.288,14.753,25.339,29.667c0.284,4.036,0.11,8.105,0.144,12.158c0.027,3.253,0.398,6.273,1.534,9.526
	c2.24,6.414,0.392,13.035-2.774,18.758c-1.805,3.262-2.395,6.435-2.818,9.89c-0.375,3.063-0.625,6.2-1.537,9.114
	c-0.493,1.574-2.018,3.503-3.491,3.97c-5.451,1.73-11.052,3.026-16.653,4.214c-1.023,0.217-2.58-0.549-3.436-1.348
	c-3.924-3.665-9.707-3.574-13.078,0.389c-3.324,3.908-2.678,9.636,1.437,12.745c4.12,3.112,9.518,2.061,12.679-2.21
	c0.805-1.088,2.312-1.945,3.655-2.29c3.897-1.001,7.875-1.688,11.869-2.508c-5.163,8.6-3.17,17.703-1.999,26.654
	c0.595,4.554,3.922,7.673,7.688,9.773c4.82,2.687,9.974,4.784,15.025,7.043c9.723,4.348,19.74,8.125,29.149,13.065
	c12.807,6.724,17.971,18.199,17.864,32.393C217.49,228.804,216.456,229.812,213.413,229.801z"/>
</svg>
