<?xml version="1.0" encoding="utf-8"?>
<!-- Generator: Adobe Illustrator 19.0.0, SVG Export Plug-In . SVG Version: 6.00 Build 0)  -->
<svg version="1.1" id="Livello_1" xmlns="http://www.w3.org/2000/svg" xmlns:xlink="http://www.w3.org/1999/xlink" x="0px" y="0px"
	 viewBox="-354 156 250 250" style="enable-background:new -354 156 250 250;" xml:space="preserve">
<style type="text/css">
	.st0{fill:#FFFFFF;}
</style>
<g id="XMLID_1_">
	<path id="XMLID_30_" class="st0" d="M-127.3,252.2h-34.1l-45-44.7c-0.8-11.6-10.4-20.6-22.2-20.6c-11.8,0-21.5,9-22.2,20.6
		l-45,44.8h-34.1c-3,0-5.6,3-5.6,6v89.9c0,3,2.5,5,5.6,5h202.7c3,0,4.8-2,4.8-5v-89.9C-122.5,255.2-124.2,252.2-127.3,252.2z
		 M-244.5,209.2c0-8.4,7.2-15.3,15.6-15.3s15.6,6.3,15.6,15.3h0c0,8-7.2,15.3-15.6,15.3S-244.5,217.7-244.5,209.2
		C-244.5,209.2-244.5,209.2-244.5,209.2z M-249.7,216.2c3,8.7,11.3,15.2,21.1,15.2c9.8,0,18.1-6.5,21.1-15.3l36.2,36h-114.6
		L-249.7,216.2z M-129.5,346.2h-199v-87h199V346.2z"/>
	<polygon id="XMLID_38_" class="st0" points="-283.5,328.2 -307.5,328.2 -307.5,271.2 -316.5,271.2 -316.5,335.2 -283.5,335.2 	"/>
	<path id="XMLID_41_" class="st0" d="M-271.4,332.4c3.8,2.9,8.5,4.3,13.8,4.3c5.2,0,9.7-1.5,13.5-4.3c3.8-2.9,5.6-7.4,5.6-13.6
		v-29.4c0-6-1.5-10.7-4.9-14.1c-3.3-3.4-7.9-5.1-14-5.1s-11.2,1.6-14.6,4.9c-3.4,3.2-5.5,8-5.5,14.3v29.5
		C-277.5,325-275.2,329.5-271.4,332.4z M-268.5,291.2c0-4,0.9-7.1,2.6-9.1c1.7-2,4.5-3.1,8.4-3.1c3.9,0,6.2,1,7.9,3.1
		c1.7,2.1,2.1,5.1,2.1,9.2v26.3c0,3.4-0.5,6.1-2.5,8c-2,1.9-4.4,2.9-7.8,2.9c-3.4,0-6-0.9-7.9-2.8c-1.9-1.9-2.8-4.5-2.8-8
		C-268.5,317.7-268.5,291.2-268.5,291.2z"/>
	<path id="XMLID_42_" class="st0" d="M-220.7,332.1c3.8,3.1,8.4,4.6,13.8,4.6c4,0,7.3-1.2,10-3l0.9,1.5h6.6v-27h-15.6l2.7,8h4.8v2.6
		c0,3.2-0.6,5.6-2.6,7.2c-1.9,1.6-4.5,2.4-7.4,2.4c-7.3,0-11-3.2-11-9.7v-29.8c0-6.4,4-9.6,11.4-9.6c2.8,0,5.9,0.6,9,1.7l2.5-7.1
		c-4-2-8.3-3-13-3c-3.8,0-7.2,0.8-9.9,2.3c-5.3,3.2-8.1,8.8-8.1,16.6v28.7C-226.5,324.5-224.5,329.1-220.7,332.1z"/>
	<path id="XMLID_45_" class="st0" d="M-171.7,332.4c3.8,2.9,8.4,4.3,13.7,4.3c5.2,0,9.4-1.5,13.2-4.3c3.8-2.9,5.3-7.4,5.3-13.6
		v-29.4c0-6-1.3-10.7-4.6-14.1c-3.3-3.4-7.8-5.1-13.9-5.1c-6,0-10.8,1.6-14.3,4.9c-3.4,3.2-5.2,8-5.2,14.3v29.5
		C-177.5,325-175.5,329.5-171.7,332.4z M-169.5,291.2c0-4,1.1-7.1,2.8-9.1c1.7-2,4.6-3.1,8.5-3.1c3.9,0,6.6,1,8.3,3.1
		c1.7,2.1,2.4,5.1,2.4,9.2v26.3c0,3.4-0.8,6.1-2.8,8c-2,1.9-4.6,2.9-7.9,2.9c-3.4,0-6.2-0.9-8.2-2.8c-1.9-1.9-3.1-4.5-3.1-8
		L-169.5,291.2L-169.5,291.2z"/>
</g>
</svg>
