<?xml version="1.0" encoding="utf-8"?>
<!-- Generator: Adobe Illustrator 19.0.0, SVG Export Plug-In . SVG Version: 6.00 Build 0)  -->
<svg version="1.1" id="Livello_1" xmlns="http://www.w3.org/2000/svg" xmlns:xlink="http://www.w3.org/1999/xlink" x="0px" y="0px"
	 viewBox="0 0 250 250" enable-background="new 0 0 250 250" xml:space="preserve">
<g id="XMLID_27_">
	<path id="XMLID_38_" fill="#FFFFFF" d="M51.908,198.35c0.286,0,0.574-0.041,0.856-0.125l47.433-14.132
		c0.481-0.144,0.918-0.405,1.272-0.761l81.063-81.608c0.171-0.172,0.309-0.363,0.43-0.562l17.168-17.168
		c3.124-3.128,3.123-8.213-0.001-11.333l-24.831-24.832c-1.514-1.515-3.527-2.349-5.668-2.349c-2.141,0-4.154,0.834-5.668,2.349
		l-17.736,17.736c-0.173,0.173-0.313,0.366-0.435,0.566l-80.57,80.572c-0.676,0.406-1.194,1.072-1.382,1.903
		c-0.045,0.196-0.067,0.393-0.073,0.587l-14.713,45.23c-0.345,1.061-0.073,2.225,0.706,3.022
		C50.333,198.032,51.111,198.35,51.908,198.35z M148.48,71.928l4.042,4.042l-72.941,73.133l-6.743-1.532L148.48,71.928z M79,155.017
		l1.106,0.305c0.221,0.05,0.325,0.074,0.546,0.074c0.788,0,1.496-0.311,2.065-0.882l74.077-74.302l10.65,10.664l-74.947,74.215
		c-0.709,0.7-1.002,1.908-0.826,2.908H79V155.017z M100.312,175.983l-2.338-8.113l73.698-72.75l4.496,4.496L100.312,175.983z
		 M168.206,52.07c0.762-0.761,2.089-0.761,2.851,0l24.832,24.833c0.785,0.784,0.784,2.062-0.001,2.849l-15.549,15.549L152.656,67.62
		L168.206,52.07z M69.13,152.83l3.87,0.825v16.866c0,1.657,0.87,3.479,2.527,3.479h17c0.277,0,0.541-0.29,0.796-0.36l1.719,5.848
		l-38.396,11.415L69.13,152.83z"/>
	<path id="XMLID_43_" fill="#FFFFFF" d="M197.527,199h-147c-1.657,0-3,1.343-3,3s1.343,3,3,3h147c1.657,0,3-1.343,3-3
		S199.184,199,197.527,199z"/>
</g>
</svg>
