<?xml version="1.0" encoding="utf-8"?>
<!-- Generator: Adobe Illustrator 19.0.0, SVG Export Plug-In . SVG Version: 6.00 Build 0)  -->
<svg version="1.1" id="Livello_1" xmlns="http://www.w3.org/2000/svg" xmlns:xlink="http://www.w3.org/1999/xlink" x="0px" y="0px"
	 viewBox="-354 156 250 250" enable-background="new -354 156 250 250" xml:space="preserve">
<g id="XMLID_1_">
	<path id="XMLID_30_" fill="#FFFFFF" d="M-127.761,263h-34.128l-44.98-44.706c-0.778-11.59-10.449-20.647-22.232-20.647
		c-11.784,0-21.455,8.989-22.233,20.579L-296.313,263h-34.128c-3.033,0-5.559,3.012-5.559,6.044v89.945
		c0,3.032,2.526,5.01,5.559,5.01h202.68c3.033,0,4.761-1.978,4.761-5.01v-89.945C-123,266.012-124.729,263-127.761,263z
		 M-245,220.071c0-8.43,7.164-15.325,15.594-15.325c8.43,0,15.566,6.253,15.566,15.253h0.014c0,8-7.156,15.324-15.586,15.324
		s-15.587-6.822-15.587-15.251C-245,220.073-245,220.072-245,220.071z M-250.178,227.037c3.012,8.747,11.319,15.187,21.077,15.187
		c9.757,0,18.064-6.509,21.076-15.256L-171.789,263h-114.624L-250.178,227.037z M-130,357h-199v-87h199V357z"/>
	<polygon id="XMLID_38_" fill="#FFFFFF" points="-284,339 -308,339 -308,282 -317,282 -317,346 -284,346 	"/>
	<path id="XMLID_41_" fill="#FFFFFF" d="M-271.868,343.263c3.813,2.9,8.55,4.35,13.801,4.35c5.248,0,9.716-1.45,13.47-4.35
		c3.754-2.898,5.597-7.43,5.597-13.595v-29.39c0-5.98-1.528-10.68-4.854-14.098c-3.328-3.418-7.943-5.128-13.985-5.128
		s-11.164,1.618-14.613,4.852c-3.448,3.237-5.548,7.998-5.548,14.284v29.481C-278,335.833-275.684,340.365-271.868,343.263z
		 M-269,302.019c0-4.029,0.913-7.065,2.593-9.111c1.678-2.043,4.508-3.067,8.415-3.067c3.906,0,6.247,1.039,7.926,3.113
		c1.678,2.076,2.066,5.128,2.066,9.155v26.276c0,3.42-0.522,6.089-2.504,8.011c-1.985,1.924-4.42,2.885-7.776,2.885
		c-3.357,0-5.956-0.946-7.878-2.839c-1.922-1.891-2.842-4.546-2.842-7.965C-269,328.477-269,302.019-269,302.019z"/>
	<path id="XMLID_42_" fill="#FFFFFF" d="M-221.237,342.943c3.754,3.053,8.383,4.578,13.753,4.578c3.968,0,7.327-1.218,10.013-3.049
		l0.857,1.529H-190v-27h-15.586l2.746,8h4.84v2.576c0,3.237-0.634,5.646-2.558,7.233c-1.922,1.589-4.483,2.38-7.413,2.38
		c-7.264,0-11.029-3.234-11.029-9.704V299.73c0-6.409,3.99-9.613,11.376-9.613c2.806,0,5.918,0.58,9.031,1.739l2.545-7.141
		c-3.968-2.015-8.263-3.022-12.963-3.022c-3.785,0-7.164,0.764-9.91,2.289c-5.311,3.237-8.079,8.759-8.079,16.572v28.748
		C-227,335.344-224.991,339.892-221.237,342.943z"/>
	<path id="XMLID_45_" fill="#FFFFFF" d="M-172.154,343.263c3.813,2.9,8.406,4.35,13.658,4.35c5.248,0,9.431-1.45,13.185-4.35
		c3.754-2.898,5.312-7.43,5.312-13.595v-29.39c0-5.98-1.315-10.68-4.641-14.098c-3.328-3.418-7.836-5.128-13.879-5.128
		c-6.042,0-10.824,1.618-14.273,4.852c-3.448,3.237-5.208,7.998-5.208,14.283v29.481C-178,335.833-175.971,340.365-172.154,343.263z
		 M-170,302.019c0-4.029,1.126-7.065,2.806-9.111c1.678-2.043,4.615-3.067,8.522-3.067c3.906,0,6.587,1.039,8.266,3.113
		c1.678,2.076,2.406,5.128,2.406,9.155v26.276c0,3.42-0.809,6.089-2.791,8.011c-1.985,1.924-4.563,2.885-7.919,2.885
		c-3.357,0-6.241-0.946-8.163-2.839c-1.922-1.891-3.127-4.546-3.127-7.965L-170,302.019L-170,302.019z"/>
</g>
</svg>
