<?xml version="1.0" encoding="utf-8"?>
<!-- Generator: Adobe Illustrator 19.0.0, SVG Export Plug-In . SVG Version: 6.00 Build 0)  -->
<svg version="1.1" id="Livello_1" xmlns="http://www.w3.org/2000/svg" xmlns:xlink="http://www.w3.org/1999/xlink" x="0px" y="0px"
	 viewBox="-354 156 250 250" enable-background="new -354 156 250 250" xml:space="preserve">
<g id="XMLID_1_">
	<path id="XMLID_38_" fill="#FFFFFF" d="M-139.439,354H-315V208h172v128h-12.896l-8.702-8.844c-1.353-1.349-3.553-1.42-4.902-0.071
		c-1.349,1.352-1.349,3.517,0,4.866l9.88,9.7c0.679,0.675,1.619,0.993,2.619,0.993V343h17.561c1.909,0,3.439-1.905,3.439-3.818
		V204.963c0-1.907-1.529-3.963-3.439-3.963h-0.089h-178.862c-1.913,0-3.609,2.055-3.609,3.963v0.091v152.021
		c0,1.912,1.696,3.925,3.609,3.925h0.09h178.862c1.909,0,3.463-1.59,3.463-3.502C-135.975,355.59-137.529,354-139.439,354z"/>
	<path id="XMLID_43_" fill="#FFFFFF" d="M-281.594,258.65c0,4.663,1.896,8.89,4.947,11.942c3.053,3.052,7.28,4.947,11.943,4.947
		c4.664,0,8.887-1.895,11.938-4.947c3.055-3.051,4.947-7.279,4.947-11.942c0-4.664-1.892-8.892-4.947-11.942
		c-3.051-3.052-7.274-4.947-11.938-4.947c-4.663,0-8.89,1.895-11.943,4.947C-279.698,249.759-281.594,253.986-281.594,258.65z
		 M-271.745,251.61c1.797-1.802,4.29-2.916,7.041-2.916c2.747,0,5.239,1.114,7.04,2.916c1.798,1.8,2.916,4.293,2.916,7.04
		c0,2.751-1.119,5.239-2.916,7.039c-1.802,1.801-4.293,2.916-7.04,2.916c-2.75,0-5.243-1.114-7.041-2.916
		c-1.8-1.8-2.919-4.289-2.919-7.039C-274.664,255.903-273.545,253.41-271.745,251.61z"/>
	<path id="XMLID_44_" fill="#FFFFFF" d="M-261,231.809v-8.953c0-1.908-1.591-3.463-3.498-3.463c-1.912,0-3.502,1.555-3.502,3.463
		v8.953c0,1.912,1.59,3.465,3.502,3.465C-262.591,235.274-261,233.721-261,231.809z"/>
	<path id="XMLID_55_" fill="#FFFFFF" d="M-268,285.495v8.948c0,1.909,1.59,3.463,3.502,3.463c1.907,0,3.498-1.554,3.498-3.463
		v-8.948c0-1.912-1.591-3.466-3.498-3.466C-266.41,282.029-268,283.583-268,285.495z"/>
	<path id="XMLID_56_" fill="#FFFFFF" d="M-225.448,258.5c0-1.913-1.555-3.5-3.467-3.5h-8.948c-1.912,0-3.467,1.587-3.467,3.5
		c0,1.912,1.555,3.5,3.467,3.5h8.948C-227.003,262-225.448,260.412-225.448,258.5z"/>
	<path id="XMLID_57_" fill="#FFFFFF" d="M-303.965,258.5c0,1.912,1.554,3.5,3.466,3.5h8.949c1.908,0,3.461-1.588,3.461-3.5
		c0-1.913-1.553-3.5-3.461-3.5h-8.949C-302.411,255-303.965,256.587-303.965,258.5z"/>
	<path id="XMLID_58_" fill="#FFFFFF" d="M-241.848,230.892l-6.325,6.323c-1.352,1.354-1.352,3.555,0,4.902
		c1.349,1.349,3.55,1.349,4.898,0l6.325-6.324c1.353-1.349,1.353-3.55,0-4.902C-238.3,229.543-240.499,229.543-241.848,230.892z"/>
	<path id="XMLID_59_" fill="#FFFFFF" d="M-286.122,275.182l-6.328,6.325c-1.349,1.341-1.359,3.536-0.018,4.885
		c1.342,1.349,3.533,1.358,4.886,0.016l6.329-6.324c1.348-1.34,1.357-3.536,0.016-4.886
		C-282.581,273.849-284.773,273.841-286.122,275.182z"/>
	<path id="XMLID_60_" fill="#FFFFFF" d="M-287.581,230.892c-1.354-1.341-3.544-1.333-4.886,0.016
		c-1.341,1.353-1.331,3.544,0.018,4.886l6.328,6.324c1.349,1.341,3.541,1.333,4.886-0.016c1.341-1.349,1.332-3.541-0.016-4.886
		L-287.581,230.892z"/>
	<path id="XMLID_61_" fill="#FFFFFF" d="M-248.173,275.182c-1.352,1.349-1.352,3.553,0,4.902l6.325,6.324
		c1.349,1.349,3.548,1.349,4.898,0c1.353-1.348,1.353-3.553,0-4.901l-6.325-6.325C-244.624,273.833-246.825,273.833-248.173,275.182
		z"/>
	<path id="XMLID_62_" fill="#FFFFFF" d="M-193.338,325.546l-5.594,5.593c-1.347,1.349-1.347,3.553,0,4.902
		c1.349,1.349,3.554,1.349,4.902,0l5.593-5.593l5.594-5.593l5.593-5.594c1.348-1.348,1.348-3.549,0-4.902l-22.372-22.366
		c-1.349-1.349-3.548-1.349-4.902,0l-42.295,42.295l-15.258-15.256l-0.18-0.197c-1.349-1.349-3.55-1.207-4.898,0.142L-284.04,336
		h-16.459c-1.912,0-3.466,1.587-3.466,3.499c0,1.913,1.554,3.501,3.466,3.501h17.894c0.958,0,1.822-0.566,2.45-1.191l15.459-15.547
		l15.433,15.399c1.341,1.348,3.537,1.335,4.886-0.005l0.007-0.02l0.009,0.004l42.288-42.295l17.469,17.468l-3.142,3.142
		L-193.338,325.546z"/>
	<path id="XMLID_63_" fill="#FFFFFF" d="M-166.279,271c3.392,0,6.496-1,8.751-4h0.016c2.25-2,3.644-5.154,3.644-8.551
		c0-3.409-1.399-6.406-3.64-8.655l-0.016-0.087c-2.255-2.241-5.351-3.708-8.755-3.708h-1.378c-0.69-3-2.32-6.053-4.593-8.328
		l-0.018,0.044c-3.059-3.064-7.274-4.93-11.913-4.93c-4.647,0-8.87,1.796-11.925,4.855c-2.279,2.273-3.907,5.359-4.597,8.359h-1.37
		c-3.4,0-6.506,1.517-8.755,3.758l-0.016,0.077c-2.241,2.249-3.64,5.377-3.64,8.785c0,3.401,1.399,6.521,3.64,8.77l0.016-0.007
		c2.249,2.241,5.355,3.616,8.755,3.616h8.948c1.908,0,3.463-1.59,3.463-3.498c0-1.912-1.555-3.502-3.463-3.502h-8.948
		c-1.506,0-2.878-0.547-3.87-1.53l-0.016,0.017c-0.982-0.991-1.596-2.348-1.596-3.853c0-1.505,0.613-2.867,1.596-3.862l0.016-0.096
		c0.992-0.984,2.364-1.676,3.87-1.676h4.388h0.087c1.912,0,3.467-1.471,3.467-3.383c0-2.73,1.125-5.183,2.923-6.985
		c1.805-1.802,4.297-2.907,7.028-2.907c2.747,0,5.24,1.133,7.033,2.922l0.122,0.021c1.773,1.773,3.026,4.237,3.026,6.947v0.086
		c0,1.912,1.333,3.299,3.243,3.299h4.478c1.504,0,2.874,0.696,3.869,1.68l0.016,0.058c0.984,0.995,1.596,2.386,1.596,3.891
		c0,1.509-0.612,2.893-1.6,3.875l-0.016-0.045c-0.983,0.988-2.356,1.54-3.865,1.54h-8.95c-0.419,0-0.816,0.152-1.188,0.289
		c-0.042,0.015-0.085,0.055-0.126,0.072c-0.146,0.06-0.281,0.156-0.416,0.235c-0.063,0.036-0.129,0.071-0.19,0.112
		c-0.16,0.107-0.307,0.236-0.447,0.368c-0.027,0.025-0.057,0.044-0.083,0.07l-5.593,5.593l-5.593,5.595
		c-1.349,1.347-1.349,3.549,0,4.898c1.352,1.352,3.553,1.352,4.902,0l5.593-5.621l4.579-4.608H-166.279z"/>
</g>
</svg>
