<?xml version="1.0" encoding="utf-8"?>
<!-- Generator: Adobe Illustrator 19.0.0, SVG Export Plug-In . SVG Version: 6.00 Build 0)  -->
<svg version="1.1" id="Livello_1" xmlns="http://www.w3.org/2000/svg" xmlns:xlink="http://www.w3.org/1999/xlink" x="0px" y="0px"
	 viewBox="0 0 250 250" enable-background="new 0 0 250 250" xml:space="preserve">
<g id="XMLID_27_">
	<path id="XMLID_30_" fill="#FFFFFF" d="M210,99.5v-42c0-1.657-0.843-2.5-2.5-2.5h-165c-1.657,0-3.5,0.843-3.5,2.5v135
		c0,1.657,1.843,3.5,3.5,3.5h165c1.657,0,2.5-1.843,2.5-3.5v-81c0-1.657-1.343-3-3-3s-3,1.343-3,3V190H45V61h159v36H58.5
		c-1.657,0-3,1.343-3,3s1.343,3,3,3h149C209.157,103,210,101.157,210,99.5z"/>
	<path id="XMLID_41_" fill="#FFFFFF" d="M67.28,85.821c4.714,0,8.769-2.876,10.504-6.965c1.734,4.089,5.789,6.965,10.503,6.965
		s8.769-2.876,10.504-6.965c1.734,4.089,5.789,6.965,10.503,6.965c6.288,0,11.403-5.115,11.403-11.403s-5.116-11.403-11.403-11.403
		c-4.714,0-8.769,2.876-10.503,6.965c-1.734-4.089-5.79-6.965-10.504-6.965s-8.769,2.876-10.503,6.965
		c-1.734-4.089-5.79-6.965-10.504-6.965c-6.288,0-11.403,5.115-11.403,11.403S60.993,85.821,67.28,85.821z M109.295,69.016
		c2.979,0,5.403,2.424,5.403,5.403s-2.424,5.403-5.403,5.403c-2.979,0-5.403-2.424-5.403-5.403S106.316,69.016,109.295,69.016z
		 M88.288,69.016c2.979,0,5.403,2.424,5.403,5.403s-2.424,5.403-5.403,5.403c-2.979,0-5.403-2.424-5.403-5.403
		S85.309,69.016,88.288,69.016z M67.28,69.016c2.979,0,5.403,2.424,5.403,5.403s-2.424,5.403-5.403,5.403
		c-2.979,0-5.403-2.424-5.403-5.403S64.301,69.016,67.28,69.016z"/>
	<path id="XMLID_48_" fill="#FFFFFF" d="M62,118c-1.657,0-3,1.343-3,3v49c0,1.657,1.343,3,3,3h51c1.657,0,3-1.343,3-3v-49
		c0-1.657-1.343-3-3-3H62z M110,167H65v-43h45V167z"/>
	<path id="XMLID_49_" fill="#FFFFFF" d="M139.5,167c-1.657,0-3,1.343-3,3s1.343,3,3,3h54c1.657,0,2.5-1.843,2.5-3.5v-24
		c0-1.657-0.843-2.5-2.5-2.5h-54c-1.657,0-3,1.343-3,3s1.343,3,3,3H190v18H139.5z"/>
	<path id="XMLID_50_" fill="#FFFFFF" d="M193.5,118h-54c-1.657,0-3,1.343-3,3s1.343,3,3,3h54c1.657,0,3-1.343,3-3
		S195.157,118,193.5,118z"/>
</g>
</svg>
