<?xml version="1.0" encoding="utf-8"?>
<!-- Generator: Adobe Illustrator 19.0.0, SVG Export Plug-In . SVG Version: 6.00 Build 0)  -->
<svg version="1.1" id="Livello_1" xmlns="http://www.w3.org/2000/svg" xmlns:xlink="http://www.w3.org/1999/xlink" x="0px" y="0px"
	 viewBox="0 0 250 250" enable-background="new 0 0 250 250" xml:space="preserve">
<g id="XMLID_27_">
	<path id="XMLID_37_" fill="#FFFFFF" d="M182.19,132.155c0.479-1.089,0.27-2.384-0.534-3.262l-65.394-71.37
		c-0.549-0.599-1.317-0.956-2.129-0.979c-0.807-0.016-1.598,0.283-2.179,0.85L108,61.255V47.63c0-2.428-0.243-5.149-2.046-6.928
		c-1.935-1.908-4.542-1.817-7.846-1.772C97.523,38.938,96.893,39,96.217,39h-5.939c-0.618,0-1.264-0.06-1.929-0.068
		c-5.497-0.067-11.731-0.159-15.144,3.215C71.763,43.573,71,45.452,71,47.63v44.264c0,1.525,1.143,2.771,2.616,2.961l-27.076,26.459
		c-3.399,3.399-5.271,7.714-5.271,12.152c0,4.438,1.872,8.753,5.282,12.16l35.654,35.28c3.473,3.477,7.726,5.829,11.975,6.626
		c1.046,0.195,2.075,0.292,3.079,0.292c3.827,0,7.292-1.35,9.943-4.004L159.834,134h19.61
		C180.633,134,181.711,133.244,182.19,132.155z M77,47.63c0-0.726,0.214-1.036,0.424-1.243c1.631-1.612,7.187-1.498,10.857-1.455
		C88.969,44.94,89.638,45,90.277,45h5.939c0.707,0,1.364-0.062,1.975-0.071c1.331-0.019,2.969-0.068,3.542,0.106
		c0.088,0.228,0.267,0.877,0.267,2.595v19.488L77,91.549V47.63z M158.638,128c-0.768,0-1.506,0.241-2.063,0.769l-53.558,50.727
		c-2.019,2.02-4.62,2.734-7.73,2.152c-3.027-0.567-6.248-2.386-8.848-4.988l-35.656-35.286c-2.298-2.296-3.512-5.031-3.512-7.907
		s1.215-5.611,3.489-7.886L102,75.507v32.387c0,1.657,1.343,3,3,3s3-1.343,3-3v-38.25l5.931-5.743L172.625,128H158.638z"/>
	<path id="XMLID_41_" fill="#FFFFFF" d="M190.971,147.204c-0.534-0.936-1.528-1.514-2.606-1.514c-1.077,0-2.072,0.578-2.606,1.514
		c-1.866,3.271-18.232,32.272-18.232,43.103c0,12.071,8.764,20.833,20.838,20.833c12.072,0,20.833-8.762,20.833-20.833
		C209.199,179.476,192.837,150.475,190.971,147.204z M188.365,205.139c-8.736,0-14.838-6.1-14.838-14.833
		c0-6.669,9.131-24.911,14.837-35.433c5.706,10.521,14.834,28.763,14.834,35.433C203.199,199.04,197.099,205.139,188.365,205.139z"
		/>
</g>
</svg>
