<?xml version="1.0" encoding="utf-8"?>
<!-- Generator: Adobe Illustrator 19.0.0, SVG Export Plug-In . SVG Version: 6.00 Build 0)  -->
<svg version="1.1" id="Livello_1" xmlns="http://www.w3.org/2000/svg" xmlns:xlink="http://www.w3.org/1999/xlink" x="0px" y="0px"
	 viewBox="0 0 250 250" enable-background="new 0 0 250 250" xml:space="preserve">
<path id="XMLID_30_" fill="#FFFFFF" d="M77.507,151.488c0.43,0,0.849-0.272,1.232-0.445c0.267,0.078,0.544-0.044,0.837-0.044
	h106.337c1.339,0,2.517-0.711,2.885-1.999l15.488-54.114c0.455-1.593-0.467-3.209-2.061-3.665c-1.593-0.454-3.253,0.49-3.709,2.083
	l-2.475,8.674l-10.964-1.607L174.952,74.17c-0.598-1.547-2.335-2.313-3.879-1.716l-25.212,9.742L128.117,57.89
	c-0.469-0.643-1.174-1.072-1.96-1.195c-0.784-0.123-1.588,0.072-2.231,0.542L85.983,84.934c-0.294,0.215-0.528,0.478-0.719,0.765
	l-10.338-1.52l-1.657-19.06c-0.104-1.192-0.905-2.208-2.04-2.586l-21.681-7.227c-1.573-0.525-3.271,0.326-3.795,1.897
	c-0.524,1.572,0.326,3.271,1.897,3.795l19.812,6.604l6.806,78.271c-6.074,1.462-10.602,6.941-10.602,13.458
	c0,5.844,3.698,11.085,9.203,13.044c1.321,0.469,2.699,0.72,4.102,0.774c-1.55,2.235-2.464,4.943-2.464,7.863
	c0,7.632,6.209,13.841,13.841,13.841c7.631,0,13.84-6.386,13.84-14.018c0-2.83-0.857-4.833-2.321-7.833h52.844
	c-1.464,3-2.321,5.003-2.321,7.833c0,7.632,6.209,13.929,13.84,13.929c7.632,0,13.841-6.342,13.841-13.973
	c0-2.83-0.857-4.789-2.321-7.789h11.824c1.657,0,3-1.343,3-3s-1.343-3-3-3h-21.199c-0.701,0-1.414-0.184-2.145-0.184
	S162.788,167,162.087,167H90.493c-0.701,0-1.414-0.184-2.145-0.184S86.904,167,86.203,167h-6.627c-0.273,0-0.532,0.225-0.783,0.293
	c-0.391-0.187-0.824-0.211-1.286-0.211c-0.902,0-1.787-0.107-2.628-0.406c-3.117-1.109-5.212-4.057-5.212-7.369
	C69.667,154.984,73.184,151.488,77.507,151.488z M170.436,79.133l7.821,20.241l-22.288-3.278c-0.051-0.088-0.093-0.18-0.154-0.264
	l-6.292-8.619L170.436,79.133z M125.04,63.851l22.65,31.028l-54.229-7.975L125.04,63.851z M194.378,107.633L183.65,145H80.246
	L75.46,90.056L194.378,107.633z M162.56,173h3.343c3.522,1,6.169,4.084,6.169,7.833c0,4.323-3.518,7.929-7.841,7.929
	s-7.84-3.65-7.84-7.973C156.391,177.04,159.038,174,162.56,173z M86.676,173h3.343c3.522,1,6.169,4.084,6.169,7.833
	c0,4.323-3.517,7.929-7.84,7.929s-7.841-3.65-7.841-7.973C80.507,177.04,83.154,174,86.676,173z"/>
</svg>
