<?xml version="1.0" encoding="utf-8"?>
<!-- Generator: Adobe Illustrator 19.0.0, SVG Export Plug-In . SVG Version: 6.00 Build 0)  -->
<svg version="1.1" id="Livello_1" xmlns="http://www.w3.org/2000/svg" xmlns:xlink="http://www.w3.org/1999/xlink" x="0px" y="0px"
	 viewBox="-354 156 250 250" enable-background="new -354 156 250 250" xml:space="preserve">
<path id="path3462_5_" inkscape:connector-curvature="0" fill="#F7931E" d="M-228.057,174.726
	c-58.537,0-106.057,47.533-106.057,106.057c0,58.519,47.52,106.282,106.057,106.282c58.537,0,106.057-47.763,106.057-106.282
	C-122,222.259-169.521,174.726-228.057,174.726z M-182,235.885c1-0.073,2.866,0.324,4.456,1.374l15.974,16.036
	c2.315,2.964,4.03,5.957-0.031,10.079l-71.253,71.467c-4.337,2.674-7.836,1.789-10.998-0.229l-51.317-50.618
	c-2.29-2.268-2.577-5.897,0.223-8.705l17.409-17.181c2.099-2.061,6.039-2.069,8.242,0l31.156,31.152l52.12-51.996
	c1.296-0.704,2.02-1.305,4.02-1.374V235.885z"/>
</svg>
