<?xml version="1.0" encoding="utf-8"?>
<!-- Generator: Adobe Illustrator 19.0.0, SVG Export Plug-In . SVG Version: 6.00 Build 0)  -->
<svg version="1.1" id="Livello_1" xmlns="http://www.w3.org/2000/svg" xmlns:xlink="http://www.w3.org/1999/xlink" x="0px" y="0px"
	 viewBox="-354 156 250 250" style="enable-background:new -354 156 250 250;" xml:space="preserve">
<style type="text/css">
	.st0{fill:#FFFFFF;}
</style>
<path class="st0" d="M-229,156c-69.1,0-125,55.9-125,125s55.9,125,125,125s125-55.9,125-125S-159.9,156-229,156z M-146.5,253.9
	l-87.1,87.1c-2.2,2.2-5.9,2.2-8.1,0l-63.5-63.5c-2.2-2.2-2.2-5.9,0-8.1l18.9-18.9c2.2-2.2,5.9-2.2,8.1,0l40.6,40.6l64.1-64.1
	c2.2-2.2,5.9-2.2,8.1,0l18.9,18.9C-144.3,248-144.3,251.6-146.5,253.9z"/>
</svg>
