<?xml version="1.0" encoding="utf-8"?>
<!-- Generator: Adobe Illustrator 19.0.0, SVG Export Plug-In . SVG Version: 6.00 Build 0)  -->
<svg version="1.1" id="Livello_1" xmlns="http://www.w3.org/2000/svg" xmlns:xlink="http://www.w3.org/1999/xlink" x="0px" y="0px"
	 viewBox="-354 156 250 250" style="enable-background:new -354 156 250 250;" xml:space="preserve">
<style type="text/css">
	.st0{fill:#38424E;}
</style>
<g>
	<path class="st0" d="M-174.1,287.1l-6,6l42.4,42.4c0.7,0.7,0.7,2.7-0.5,3.9l-31.1,31.4c-0.5,0.5-1.8,1.2-3.4,1.2
		c-0.9,0-2.1-0.2-3-1.1c-0.3-0.3-2.6-2.8-6.4-6.8l22.6-22.6l-6-6l-22.5,22.5c-4-4.1-8.2-8.4-12.5-12.9l9.8-9.8l-6-6l-9.8,9.8
		c-2.8-2.8-5.7-5.7-8.7-8.8l-0.7-0.7l-6,6l0.7,0.7c23.1,23.1,39.2,40.1,39.3,40.3c2.2,2.2,5.4,3.4,9,3.4c3.7,0,7.3-1.3,9.4-3.4
		l31.1-31.3c4.3-4.3,4.5-11.7,0.5-15.7L-174.1,287.1z"/>
	<path class="st0" d="M-324.6,233.5c3,2.8,18.8,18.1,40.6,39.8l0.7,0.7l6-6l-0.7-0.7c-3.3-3.3-6.4-6.4-9.4-9.4l9.8-9.8l-6-6
		l-9.8,9.8c-4.4-4.3-8.7-8.5-12.8-12.6l22.4-22.4l-6-6l-22.5,22.5c-4-3.9-6.4-6.2-6.5-6.2c-0.7-0.7-2.7-3.8,0-6.5l31.1-31.1
		c1.5-1.5,3.8-2.7,6.3-0.2c0.2,0.2,15.8,18,39.9,42l0.7,0.7l6-6l-0.7-0.7c-21.7-21.7-36.7-38.5-39.5-41.7l-0.1-0.2
		c-6.3-6.3-14-4.4-18.4,0l-31.1,31.1c-2.7,2.7-4,6.1-3.8,9.7C-328.4,227.9-327,231.1-324.6,233.5L-324.6,233.5z"/>
	<path class="st0" d="M-150.5,250.8l20.2-20.2c2-2,3.2-4.8,3.2-7.6c0-2.9-1.1-5.6-3.2-7.6l-32.5-32.6c-4.1-4.1-11.2-4.1-15.3,0
		l-24,24l0.1,0.1l-106.9,106.9l-19.8,60.9c-1.1,3.5,2.1,6.7,5.6,5.7l62.5-18.6l0.2-0.1L-150.5,250.8L-150.5,250.8z M-296.8,313.6
		l98.6-98.6l4.9,4.9l-95.3,95.5L-296.8,313.6z M-282,336v-15.1l94.6-94.9l13.6,13.5l-97.8,96.5H-282z M-290,323.7V344h18.2l3.1,11
		l-49.7,15l16.2-49L-290,323.7z M-162.4,250.9l-98.9,99.5l-2.9-10l96.3-95L-162.4,250.9z M-135.6,223c0,0.6-0.2,1.2-0.7,1.7
		l-20.2,20.2l-35.9-35.9l20.2-20.2c0.9-0.9,2.5-0.9,3.3,0l32.6,32.6C-135.9,221.8-135.6,222.4-135.6,223z"/>
</g>
</svg>
