<?xml version="1.0" encoding="utf-8"?>
<!-- Generator: Adobe Illustrator 19.0.0, SVG Export Plug-In . SVG Version: 6.00 Build 0)  -->
<svg version="1.1" id="Livello_1" xmlns="http://www.w3.org/2000/svg" xmlns:xlink="http://www.w3.org/1999/xlink" x="0px" y="0px"
	 viewBox="-354 156 250 250" enable-background="new -354 156 250 250" xml:space="preserve">
<g id="XMLID_27_">
	<path id="XMLID_30_" fill="#38424E" d="M-174.143,288.552l-4.561,4.561l41.695,41.684c1.2,1.208,0.964,3.813-0.495,5.27
		l-31.079,31.444c-0.699,0.701-2.287,1.455-4.12,1.455c-1.046,0-2.542-0.252-3.673-1.38c-0.063-0.068-2.637-2.818-7.11-7.502
		l22.576-22.578l-4.561-4.561l-22.48,22.481c-3.846-3.999-8.542-8.843-13.891-14.295l9.843-9.842l-4.561-4.561l-9.807,9.805
		c-2.992-3.031-6.132-6.195-9.434-9.497l-4.561,4.561c23.027,23.022,39.112,40.011,39.348,40.262c2.158,2.159,5.109,3.14,8.31,3.14
		h0.003c3.295,0,6.625-1.076,8.694-3.152l31.076-31.337c3.95-3.949,4.18-10.611,0.488-14.322L-174.143,288.552z"/>
	<path id="XMLID_34_" fill="#38424E" d="M-283.3,272.658l4.561-4.561c-3.539-3.539-6.902-6.885-10.104-10.058l9.798-9.797
		l-4.561-4.561l-9.823,9.822c-5.469-5.398-10.288-10.116-14.231-13.956l22.397-22.392l-4.561-4.561l-22.462,22.457
		c-4.527-4.386-7.129-6.873-7.173-6.914c-1.285-1.285-2.974-4.898,0-7.874l31.088-31.088c1.184-1.183,4.312-3.558,7.733-0.151
		c0.154,0.176,15.858,18.011,39.82,41.975l4.561-4.561c-23.804-23.806-39.382-41.497-39.678-41.826
		c-5.84-5.832-12.903-4.092-16.998,0.002l-31.088,31.088c-5.321,5.319-4.177,12.819,0.054,17.048
		C-323.8,232.911-306.966,248.99-283.3,272.658z"/>
	<path id="XMLID_43_" fill="#38424E" d="M-151.937,250.818l20.875-20.881c1.859-1.852,2.879-4.316,2.879-6.937
		c-0.003-2.619-1.024-5.08-2.876-6.924l-32.544-32.55c-3.704-3.705-10.156-3.703-13.86-0.002l-23.248,23.251l0.087,0.087
		L-307.48,313.72l-0.548,0.547l-21.789,66.985l68.855-20.515l109.103-109.84L-151.937,250.818z M-198.257,213.618l6.296,6.297
		l-96.391,96.645l-10.465-2.378L-198.257,213.618z M-283.526,321l96.126-96.451l14.983,14.958L-271.208,337H-283v-16H-283.526z
		 M-319.882,371.559l17.037-51.723l13.845,3.098V343h17.966l3.6,12.714L-319.882,371.559z M-261.747,352.368l-3.515-12.194
		l97.406-96.151l6.887,6.888L-261.747,352.368z M-193.782,208.97l20.881-20.884c1.266-1.263,3.468-1.266,4.735,0l32.55,32.556
		c0.633,0.63,0.983,1.468,0.983,2.359c0,0.895-0.35,1.736-0.986,2.372l-20.878,20.882L-193.782,208.97z"/>
</g>
</svg>
