<?xml version="1.0" encoding="utf-8"?>
<!-- Generator: Adobe Illustrator 19.0.0, SVG Export Plug-In . SVG Version: 6.00 Build 0)  -->
<svg version="1.1" id="Livello_1" xmlns="http://www.w3.org/2000/svg" xmlns:xlink="http://www.w3.org/1999/xlink" x="0px" y="0px"
	 viewBox="0 0 250 250" enable-background="new 0 0 250 250" xml:space="preserve">
<g id="XMLID_27_">
	<path id="XMLID_41_" fill="#1D1D1B" d="M141.658,163.073c3.71-3.844,6.002-9.425,6.002-14.945c0-11.368-9.1-20.616-20.286-20.616
		c-11.185,0-20.285,9.025-20.285,20.12c0,6.015,2.52,12.09,6.474,16.02l-7.559,23.45c-0.392,1.218-0.179,2.384,0.574,3.418
		c0.753,1.034,1.955,1.481,3.233,1.481h35.764c1.278,0,2.479-0.447,3.232-1.479c0.753-1.033,0.967-2.282,0.576-3.499
		L141.658,163.073z M115.304,184l6.698-20.615c0.543-1.687-0.087-3.447-1.55-4.447c-3.057-2.091-5.362-6.945-5.362-11.348
		c0-6.683,5.511-12.1,12.285-12.1c6.66,0,12.286,5.788,12.286,12.626c0,4.046-2.008,8.265-4.996,10.49
		c-1.372,1.022-1.942,2.642-1.418,4.271L140.088,184H115.304z"/>
	<path id="XMLID_44_" fill="#1D1D1B" d="M167.928,103H94.69c-3.738-14,0.998-30.962,11.81-40.306
		c16.161-13.958,40.237-12.577,53.67,2.972c2.51,2.91,4.18,5.492,5.582,8.537c0.642,1.394,2.023,2.318,3.558,2.347
		c1.419,0.042,2.754-0.699,3.49-1.906c3.351-2.741,7.358-4.627,11.635-5.479c1.213-0.242,2.247-1.029,2.798-2.136
		c0.552-1.107,0.561-2.406,0.023-3.521c-2.483-5.15-5.458-9.739-8.839-13.633c-22.103-25.58-60.884-28.42-86.449-6.33
		c-17.154,14.823-25.147,37.785-20.527,59.347C59.231,108.744,51,120.824,51,133.955v50.651C51,203.826,68.64,221,87.46,221h80.468
		c9.142,0,17.005-3.961,22.595-11.451c4.983-6.676,7.477-15.428,7.477-24.943v-50.651C198,114.778,187.071,103,167.928,103z
		 M190,184.606C190,198.88,182.747,213,167.928,213H87.46C72.827,213,59,199.639,59,184.606v-50.651
		c0-10.94,7.587-20.964,18.508-24.944c1.961-0.715,3.168-2.818,2.609-4.83C74.681,84.623,81.399,63.199,97.137,49.6
		c10.046-8.68,22.469-12.932,34.811-12.932c14.965,0,29.871,6.253,40.407,18.446c1.969,2.27,3.793,4.824,5.435,7.631
		c-2.539,0.924-4.959,2.141-7.211,3.624c-1.222-1.96-2.641-3.861-4.355-5.848c-16.318-18.892-45.457-20.559-64.954-3.715
		c-14.08,12.167-19.567,33.308-13.346,51.644c0.551,1.623,2.075,2.55,3.789,2.55h76.217c14.767,0,22.072,8.153,22.072,22.955
		V184.606z"/>
</g>
</svg>
