<?xml version="1.0" encoding="utf-8"?>
<!-- Generator: Adobe Illustrator 19.0.0, SVG Export Plug-In . SVG Version: 6.00 Build 0)  -->
<svg version="1.1" id="Livello_1" xmlns="http://www.w3.org/2000/svg" xmlns:xlink="http://www.w3.org/1999/xlink" x="0px" y="0px"
	 viewBox="-354 156 250 250" style="enable-background:new -354 156 250 250;" xml:space="preserve">
<style type="text/css">
	.st0{fill:#38424E;}
</style>
<g id="XMLID_27_">
	<path id="XMLID_41_" class="st0" d="M-212.3,319.1c3.7-3.8,6-9.4,6-14.9c0-11.4-9.1-20.6-20.3-20.6c-11.2,0-20.3,9-20.3,20.1
		c0,6,2.5,12.1,6.5,16l-7.6,23.5c-0.4,1.2-0.2,2.4,0.6,3.4s2,1.5,3.2,1.5h35.8c1.3,0,2.5-0.4,3.2-1.5c0.8-1,1-2.3,0.6-3.5
		L-212.3,319.1z M-238.7,340l6.7-20.6c0.5-1.7-0.1-3.4-1.6-4.4c-3.1-2.1-5.4-6.9-5.4-11.3c0-6.7,5.5-12.1,12.3-12.1
		c6.7,0,12.3,5.8,12.3,12.6c0,4-2,8.3-5,10.5c-1.4,1-1.9,2.6-1.4,4.3l6.8,21.1H-238.7z"/>
	<path id="XMLID_44_" class="st0" d="M-186.1,259h-73.2c-3.7-14,1-31,11.8-40.3c16.2-14,40.2-12.6,53.7,3c2.5,2.9,4.2,5.5,5.6,8.5
		c0.6,1.4,2,2.3,3.6,2.3c1.4,0,2.8-0.7,3.5-1.9c3.4-2.7,7.4-4.6,11.6-5.5c1.2-0.2,2.2-1,2.8-2.1c0.6-1.1,0.6-2.4,0-3.5
		c-2.5-5.2-5.5-9.7-8.8-13.6c-22.1-25.6-60.9-28.4-86.4-6.3c-17.2,14.8-25.1,37.8-20.5,59.3c-12.2,5.9-20.4,17.9-20.4,31.1v50.7
		c0,19.2,17.6,36.4,36.5,36.4h80.5c9.1,0,17-4,22.6-11.5c5-6.7,7.5-15.4,7.5-24.9V290C-156,270.8-166.9,259-186.1,259z M-164,340.6
		c0,14.3-7.3,28.4-22.1,28.4h-80.5c-14.6,0-28.5-13.4-28.5-28.4V290c0-10.9,7.6-21,18.5-24.9c2-0.7,3.2-2.8,2.6-4.8
		c-5.4-19.6,1.3-41,17-54.6c10-8.7,22.5-12.9,34.8-12.9c15,0,29.9,6.3,40.4,18.4c2,2.3,3.8,4.8,5.4,7.6c-2.5,0.9-5,2.1-7.2,3.6
		c-1.2-2-2.6-3.9-4.4-5.8c-16.3-18.9-45.5-20.6-65-3.7c-14.1,12.2-19.6,33.3-13.3,51.6c0.6,1.6,2.1,2.5,3.8,2.5h76.2
		c14.8,0,22.1,8.2,22.1,23L-164,340.6L-164,340.6z"/>
</g>
</svg>
