<?xml version="1.0" encoding="utf-8"?>
<!-- Generator: Adobe Illustrator 19.0.0, SVG Export Plug-In . SVG Version: 6.00 Build 0)  -->
<svg version="1.1" id="Livello_1" xmlns="http://www.w3.org/2000/svg" xmlns:xlink="http://www.w3.org/1999/xlink" x="0px" y="0px"
	 viewBox="-354 156 250 250" style="enable-background:new -354 156 250 250;" xml:space="preserve">
<style type="text/css">
	.st0{fill:#38424E;}
</style>
<g id="XMLID_28_">
	<path id="XMLID_36_" class="st0" d="M-141.2,214h-175.9c-6.1,0-10.9,6.2-10.9,12.3v11v29.3v69.6c0,6.1,4.8,11.8,10.9,11.8h175.9
		c6.1,0,11.2-5.7,11.2-11.8v-69.6v-29.3v-11C-130,220.2-135.1,214-141.2,214z M-139,336.2c0,2-0.2,2.8-2.2,2.8h-175.9
		c-2,0-1.9-0.8-1.9-2.8V269h180V336.2z M-139,260h-180v-17h180V260z M-139,240h-180v-13.7c0-2-0.1-3.3,1.9-3.3h175.9
		c2,0,2.2,1.2,2.2,3.3L-139,240L-139,240z"/>
	<rect id="XMLID_49_" x="-306" y="319" class="st0" width="75" height="8"/>
	<rect id="XMLID_50_" x="-306" y="297" class="st0" width="47" height="6"/>
	<path id="XMLID_51_" class="st0" d="M-174.3,327h14.9c4,0,8.4-5,8.4-8.9v-0.4c0-3.9-4.4-6.7-8.4-6.7h-14.9c-4,0-6.7,2.7-6.7,6.7
		v0.4C-181,322-178.3,327-174.3,327z"/>
</g>
</svg>
