<?xml version="1.0" encoding="utf-8"?>
<!-- Generator: Adobe Illustrator 19.0.0, SVG Export Plug-In . SVG Version: 6.00 Build 0)  -->
<svg version="1.1" id="Livello_1" xmlns="http://www.w3.org/2000/svg" xmlns:xlink="http://www.w3.org/1999/xlink" x="0px" y="0px"
	 viewBox="0 0 250 250" enable-background="new 0 0 250 250" xml:space="preserve">
<g id="XMLID_28_">
	<path id="XMLID_36_" fill="#1D1D1B" d="M212.793,58H36.875C30.805,58,26,64.187,26,70.257v10.994v29.319v69.633
		C26,186.28,30.805,192,36.875,192h175.917c6.065,0,11.207-5.72,11.207-11.796v-69.633V81.251V70.257
		C224,64.187,218.858,58,212.793,58z M215,180.204c0,2.022-0.186,2.796-2.207,2.796H36.875c-2.022,0-1.875-0.774-1.875-2.796V113
		h180V180.204z M215,104H35V87h180V104z M215,84H35V70.257C35,68.233,34.853,67,36.875,67h175.917c2.022,0,2.207,1.233,2.207,3.257
		V84z"/>
	<rect id="XMLID_49_" x="48" y="163" fill="#1D1D1B" width="75" height="8"/>
	<rect id="XMLID_50_" x="48" y="141" fill="#1D1D1B" width="47" height="6"/>
	<path id="XMLID_51_" fill="#1D1D1B" d="M179.701,171h14.88c3.983,0,8.418-4.969,8.418-8.898v-0.44c0-3.93-4.435-6.661-8.418-6.661
		h-14.88c-3.994,0-6.701,2.732-6.701,6.661v0.44C173,166.031,175.707,171,179.701,171z"/>
</g>
</svg>
