<?xml version="1.0" encoding="utf-8"?>
<!-- Generator: Adobe Illustrator 19.0.0, SVG Export Plug-In . SVG Version: 6.00 Build 0)  -->
<svg version="1.1" id="Livello_1" xmlns="http://www.w3.org/2000/svg" xmlns:xlink="http://www.w3.org/1999/xlink" x="0px" y="0px"
	 viewBox="-354 156 250 250" style="enable-background:new -354 156 250 250;" xml:space="preserve">
<style type="text/css">
	.st0{fill:#38424E;}
</style>
<g id="XMLID_27_">
	<path id="XMLID_35_" class="st0" d="M-172.1,166h-114.8c-6.1,0-11.1,5-11.1,11.1v207.8c0,6.1,5,11.1,11.1,11.1h114.8
		c6.1,0,11.1-5,11.1-11.1V177.1C-161,171-166,166-172.1,166z M-169,384.9c0,1.7-1.4,3.1-3.1,3.1h-114.8c-1.7,0-3.1-1.4-3.1-3.1
		V177.1c0-1.7,1.4-3.1,3.1-3.1h114.8c1.7,0,3.1,1.4,3.1,3.1V384.9z"/>
	<path id="XMLID_43_" class="st0" d="M-179,201h-100c-2.2,0-4,1.8-4,4v150c0,2.2,1.8,4,4,4h100c2.2,0,4-1.8,4-4V205
		C-175,202.8-176.8,201-179,201z M-183,351h-92V209h92V351z"/>
	<path id="XMLID_46_" class="st0" d="M-229,363.4c-6.1,0-11.1,5-11.1,11.1c0,6.1,5,11.1,11.1,11.1s11.1-5,11.1-11.1
		C-217.9,368.4-222.9,363.4-229,363.4z M-229,377.6c-1.7,0-3.1-1.4-3.1-3.1c0-1.7,1.4-3.1,3.1-3.1s3.1,1.4,3.1,3.1
		C-225.9,376.2-227.3,377.6-229,377.6z"/>
	<path id="XMLID_47_" class="st0" d="M-244,195h29c2.2,0,4-1.8,4-4s-1.8-4-4-4h-29c-2.2,0-4,1.8-4,4S-246.2,195-244,195z"/>
</g>
</svg>
