<?xml version="1.0" encoding="utf-8"?>
<!-- Generator: Adobe Illustrator 19.0.0, SVG Export Plug-In . SVG Version: 6.00 Build 0)  -->
<svg version="1.1" id="Livello_1" xmlns="http://www.w3.org/2000/svg" xmlns:xlink="http://www.w3.org/1999/xlink" x="0px" y="0px"
	 viewBox="0 0 250 250" enable-background="new 0 0 250 250" xml:space="preserve">
<g id="XMLID_27_">
	<path id="XMLID_35_" fill="#1D1D1B" d="M181.88,10H67.12C60.988,10,56,14.988,56,21.12v207.76c0,6.132,4.988,11.12,11.12,11.12
		h114.76c6.132,0,11.12-4.988,11.12-11.12V21.12C193,14.988,188.012,10,181.88,10z M185,228.88c0,1.721-1.4,3.12-3.12,3.12H67.12
		c-1.72,0-3.12-1.399-3.12-3.12V21.12C64,19.4,65.4,18,67.12,18h114.76c1.72,0,3.12,1.4,3.12,3.12V228.88z"/>
	<path id="XMLID_43_" fill="#1D1D1B" d="M175,45H75c-2.209,0-4,1.791-4,4v150c0,2.209,1.791,4,4,4h100c2.209,0,4-1.791,4-4V49
		C179,46.791,177.209,45,175,45z M171,195H79V53h92V195z"/>
	<path id="XMLID_46_" fill="#1D1D1B" d="M125,207.399c-6.132,0-11.12,4.988-11.12,11.12s4.988,11.12,11.12,11.12
		s11.12-4.988,11.12-11.12S131.132,207.399,125,207.399z M125,221.64c-1.72,0-3.12-1.399-3.12-3.12s1.4-3.12,3.12-3.12
		s3.12,1.399,3.12,3.12S126.72,221.64,125,221.64z"/>
	<path id="XMLID_47_" fill="#1D1D1B" d="M110,39h29c2.209,0,4-1.791,4-4s-1.791-4-4-4h-29c-2.209,0-4,1.791-4,4S107.791,39,110,39z"
		/>
</g>
</svg>
