<?xml version="1.0" encoding="utf-8"?>
<!-- Generator: Adobe Illustrator 19.0.0, SVG Export Plug-In . SVG Version: 6.00 Build 0)  -->
<svg version="1.1" id="Livello_1" xmlns="http://www.w3.org/2000/svg" xmlns:xlink="http://www.w3.org/1999/xlink" x="0px" y="0px"
	 viewBox="-354 156 250 250" enable-background="new -354 156 250 250" xml:space="preserve">
<g id="XMLID_33_">
	<path id="XMLID_40_" fill="#FFFFFF" d="M-291.843,347h-23.419c-1.848,0-3.346,2.651-3.346,4.5c0,1.85,1.498,4.5,3.346,4.5h23.418
		c1.848,0,3.346-2.65,3.346-4.5C-288.497,349.651-289.995,347-291.843,347z"/>
	<path id="XMLID_48_" fill="#FFFFFF" d="M-122.304,194h-189.025c-1.847,0-2.671,0.834-2.671,2.68V243h-16.119
		c-5.052,0-8.881,3.718-8.881,8.77v107.068c0,5.052,3.829,9.163,8.881,9.163h51.52c5.052,0,9.599-4.11,9.599-9.163V339h35.511
		l-10.859,22h-12.239c-1.848,0-3.346,1.151-3.346,3s1.498,3,3.346,3h15.022h50.183h0.067h15.022c1.848,0,3.346-1.151,3.346-3
		s-1.498-3-3.346-3h-12.295c-0.017,0-0.029-0.033-0.046-0.056L-199.399,339h77.095c1.848,0,3.304-2.466,3.304-4.316V196.68
		C-119,194.834-120.456,194-122.304,194z M-274,358.739c0,2.353-1.908,4.261-4.261,4.261h-51.478c-2.353,0-4.261-1.908-4.261-4.261
		V252.261c0-2.353,1.908-4.261,4.261-4.261h51.478c2.353,0,4.261,1.908,4.261,4.261V358.739z M-195.723,361h-41.501l10.139-22
		h21.223L-195.723,361z M-125,332h-79.766h-23.415H-269v-80.23c0-5.052-4.547-8.77-9.599-8.77H-309v-27h183.581
		c0.196,0,0.419,0.046,0.419,0.032V332z M-125,211.18c0-0.014-0.222-0.18-0.419-0.18H-309v-11h184V211.18z"/>
	<path id="XMLID_69_" fill="#FFFFFF" d="M-280,262.515c0-4.703-3.812-8.515-8.515-8.515h-30.97c-4.703,0-8.515,3.812-8.515,8.515
		v69.97c0,4.703,3.812,8.515,8.515,8.515h30.97c4.703,0,8.515-3.812,8.515-8.515V262.515z M-285,332.386
		c0,1.996-1.618,3.614-3.614,3.614h-30.772c-1.996,0-3.614-1.618-3.614-3.614v-69.772c0-1.996,1.618-3.614,3.614-3.614h30.772
		c1.996,0,3.614,1.618,3.614,3.614V332.386z"/>
</g>
</svg>
