<?xml version="1.0" encoding="utf-8"?>
<!-- Generator: Adobe Illustrator 19.0.0, SVG Export Plug-In . SVG Version: 6.00 Build 0)  -->
<svg version="1.1" id="Livello_1" xmlns="http://www.w3.org/2000/svg" xmlns:xlink="http://www.w3.org/1999/xlink" x="0px" y="0px"
	 viewBox="-354 156 250 250" enable-background="new -354 156 250 250" xml:space="preserve">
<g id="XMLID_28_">
	<path id="XMLID_29_" fill="#FFFFFF" d="M-144,224.466c-1.68,0-3,1.362-3,3.042V364h-133.492c-1.68,0-3.042,1.82-3.042,3.5
		s1.362,3.5,3.042,3.5h136.907c1.68,0,2.585-1.862,2.585-3.542v-139.95C-141,225.828-142.32,224.466-144,224.466z"/>
	<path id="XMLID_35_" fill="#FFFFFF" d="M-153,355.288V209.254c0-1.68-1.32-3.042-3-3.042s-3,1.362-3,3.042V352h-139.746
		c-1.68,0-3.042,1.32-3.042,3s1.362,3,3.042,3h142.992C-154.074,358-153,356.968-153,355.288z"/>
	<path id="XMLID_52_" fill="#FFFFFF" d="M-165,191h-152v155h152V191z M-171,340h-140v-24h140V340z M-279.793,310l19.527-32.787
		l19.299,23.071l30.07-44.969L-190.403,310H-279.793z M-171,310h-12.904l-25.472-67.979l-32.135,48.108l-19.572-23.353L-286.882,310
		H-311V197h140V310z"/>
	<path id="XMLID_61_" fill="#FFFFFF" d="M-272.336,243.744c8.108,0,14.704-6.599,14.704-14.708c0-8.108-6.596-14.704-14.704-14.704
		c-8.11,0-14.708,6.596-14.708,14.704C-287.044,237.145-280.445,243.744-272.336,243.744z M-272.336,220.417
		c4.752,0,8.619,3.867,8.619,8.619c0,4.755-3.867,8.624-8.619,8.624c-4.755,0-8.624-3.868-8.624-8.624
		C-280.959,224.283-277.091,220.417-272.336,220.417z"/>
</g>
</svg>
