<?xml version="1.0" encoding="utf-8"?>
<!-- Generator: Adobe Illustrator 19.0.0, SVG Export Plug-In . SVG Version: 6.00 Build 0)  -->
<svg version="1.1" id="Livello_1" xmlns="http://www.w3.org/2000/svg" xmlns:xlink="http://www.w3.org/1999/xlink" x="0px" y="0px"
	 viewBox="0 0 250 250" style="enable-background:new 0 0 250 250;" xml:space="preserve">
<style type="text/css">
	.st0{fill:#3C5B9B;}
	.st1{fill:#FFFFFF;}
</style>
<g id="XMLID_3350_">
	<path id="XMLID_3353_" class="st0" d="M237.5,181.2c0,31.1-25.2,56.2-56.3,56.2H68.7c-31.1,0-56.2-25.2-56.2-56.2V68.8
		c0-31.1,25.2-56.2,56.2-56.2h112.5c31.1,0,56.3,25.2,56.3,56.2V181.2z"/>
	<g id="XMLID_3351_">
		<path id="XMLID_3352_" class="st1" d="M106.2,195.3h29.2c0,0,0-38.8,0-70.3h19.7l2.5-24.8h-22.2V85.6c0-5.5,3.6-6.8,6.2-6.8
			c2.5,0,15.7,0,15.7,0V54.8l-21.6-0.1c-24,0-29.5,18-29.5,29.5v16.1H92.3V125h13.9C106.2,156.9,106.2,195.3,106.2,195.3z"/>
	</g>
</g>
</svg>
