<?xml version="1.0" encoding="utf-8"?>
<!-- Generator: Adobe Illustrator 19.0.0, SVG Export Plug-In . SVG Version: 6.00 Build 0)  -->
<svg version="1.1" id="Livello_1" xmlns="http://www.w3.org/2000/svg" xmlns:xlink="http://www.w3.org/1999/xlink" x="0px" y="0px"
	 viewBox="0 0 250 250" style="enable-background:new 0 0 250 250;" xml:space="preserve">
<style type="text/css">
	.st0{fill:#2DAAE1;}
	.st1{fill:#FFFFFF;}
</style>
<g id="XMLID_3354_">
	<path id="XMLID_3357_" class="st0" d="M237.5,181.2c0,31.1-25.2,56.2-56.2,56.2H68.8c-31.1,0-56.3-25.2-56.3-56.2V68.8
		c0-31.1,25.2-56.2,56.3-56.2h112.5c31.1,0,56.2,25.2,56.2,56.2V181.2z"/>
	<g id="XMLID_3355_">
		<path id="XMLID_3356_" class="st1" d="M191.4,70c-5.6,3.3-11.7,5.7-18.3,7c-5.3-5.6-12.8-9.1-21.1-9.1
			c-15.9,0-28.8,12.9-28.8,28.9c0,2.3,0.3,4.5,0.7,6.6c-24-1.2-45.2-12.7-59.5-30.1c-2.5,4.3-3.9,9.2-3.9,14.5
			c0,10,5.1,18.8,12.8,24c-4.7-0.1-9.2-1.4-13.1-3.6c0,0.1,0,0.2,0,0.4c0,14,9.9,25.6,23.1,28.3c-2.4,0.7-5,1-7.6,1
			c-1.9,0-3.7-0.2-5.4-0.5c3.7,11.5,14.3,19.8,27,20c-9.9,7.7-22.3,12.4-35.8,12.4c-2.3,0-4.6-0.1-6.9-0.4c12.8,8.2,27.9,13,44.2,13
			c53.1,0,82.1-44,82.1-82.1c0-1.2,0-2.5-0.1-3.7c5.6-4.1,10.5-9.1,14.4-14.9c-5.2,2.3-10.7,3.8-16.6,4.5
			C184.7,82.4,189.3,76.7,191.4,70z"/>
	</g>
</g>
</svg>
