<?xml version="1.0" encoding="utf-8"?>
<!-- Generator: Adobe Illustrator 19.0.0, SVG Export Plug-In . SVG Version: 6.00 Build 0)  -->
<svg version="1.1" id="Livello_1" xmlns="http://www.w3.org/2000/svg" xmlns:xlink="http://www.w3.org/1999/xlink" x="0px" y="0px"
	 viewBox="0 0 250 250" style="enable-background:new 0 0 250 250;" xml:space="preserve">
<style type="text/css">
	.st0{fill:#3C5B9B;}
</style>
<path id="XMLID_943_" class="st0" d="M230,138.4c-3.5-7.2-3.5-19.1,0-26.3l5.6-11.4c3.5-7.2,0.6-16.3-6.5-20l-11.2-6
	c-7.1-3.8-14.1-13.4-15.5-21.3l-2.2-12.5c-1.4-7.9-9.1-13.5-17.1-12.4l-12.6,1.8c-8,1.1-19.3-2.5-25.1-8.1l-9.1-8.8
	c-5.8-5.6-15.3-5.6-21.1,0l-9.1,8.8c-5.8,5.6-17.1,9.3-25.1,8.1l-12.6-1.8c-8-1.1-15.7,4.4-17.1,12.4l-2.2,12.5
	c-1.4,7.9-8.4,17.5-15.5,21.3l-11.2,6c-7.1,3.8-10.1,12.8-6.5,20l5.6,11.4c3.6,7.3,3.6,19.1,0,26.3l-5.6,11.4
	c-3.5,7.2-0.6,16.3,6.5,20l11.2,5.9c7.1,3.8,14.1,13.4,15.5,21.3l2.2,12.5c1.4,7.9,9.1,13.5,17.1,12.4l12.6-1.8
	c8-1.1,19.3,2.5,25.1,8.1l9.1,8.8c5.8,5.6,15.3,5.6,21.1,0l9.1-8.8c5.8-5.6,17.1-9.3,25.1-8.1l12.6,1.8c8,1.1,15.7-4.4,17.1-12.4
	l2.2-12.5c1.4-7.9,8.4-17.5,15.5-21.3l11.2-5.9c7.1-3.8,10.1-12.8,6.5-20L230,138.4z M152.7,124.9h-17c0,29,0,63,0,63h-27
	c0,0,0-34,0-63h-12v-22h12V88.7c0-10.3,5-26.4,26.5-26.4l19.5,0.1v21.6c0,0-11.8,0-14,0c-2.3,0-5,1.1-5,6.1v12.9H155L152.7,124.9z"
	/>
</svg>
