<?xml version="1.0" encoding="utf-8"?>
<!-- Generator: Adobe Illustrator 19.0.0, SVG Export Plug-In . SVG Version: 6.00 Build 0)  -->
<svg version="1.1" id="Livello_1" xmlns="http://www.w3.org/2000/svg" xmlns:xlink="http://www.w3.org/1999/xlink" x="0px" y="0px"
	 viewBox="0 0 250 250" style="enable-background:new 0 0 250 250;" xml:space="preserve">
<style type="text/css">
	.st0{fill:#2DAAE1;}
</style>
<path id="XMLID_455_" class="st0" d="M235.6,100.7c3.5-7.2,0.6-16.3-6.5-20l-11.2-5.9c-7.1-3.8-14.1-13.4-15.5-21.3l-2.2-12.5
	c-1.4-7.9-9.1-13.5-17.1-12.4l-12.6,1.8c-8,1.1-19.3-2.5-25.1-8.1l-9.1-8.8c-5.8-5.6-15.3-5.6-21.1,0l-9.1,8.8
	c-5.8,5.6-17.1,9.3-25.1,8.1l-12.6-1.8c-8-1.1-15.7,4.4-17.1,12.4l-2.2,12.5c-1.4,7.9-8.4,17.5-15.5,21.3l-11.2,5.9
	c-7.1,3.8-10.1,12.8-6.5,20l5.6,11.4c3.5,7.2,3.5,19.1,0,26.3l-5.6,11.4c-3.5,7.2-0.6,16.3,6.5,20l11.2,6
	c7.1,3.8,14.1,13.4,15.5,21.3l2.2,12.5c1.4,7.9,9.1,13.5,17.1,12.4l12.6-1.8c8-1.1,19.3,2.5,25.1,8.1l9.1,8.8
	c5.8,5.6,15.3,5.6,21.1,0l9.1-8.8c5.8-5.6,17.1-9.3,25.1-8.1l12.6,1.8c8,1.1,15.7-4.4,17.1-12.4l2.2-12.5
	c1.4-7.9,8.4-17.5,15.5-21.3l11.2-6c7.1-3.8,10.1-12.8,6.5-20l-5.6-11.4c-3.6-7.2-3.6-19.1,0-26.3L235.6,100.7z M175.7,99.6
	C175.7,99.6,175.7,99.6,175.7,99.6c0,0.3,0,0.6,0,1c0,0.8,0.1,1.5,0.1,2.3c0,0,0,0.1,0,0.1c0,15.5-5.3,32-15.6,45.4
	c-2.1,2.8-4.5,5.5-7.1,8c-0.9,0.8-1.7,1.6-2.6,2.4c-12,10.7-28.2,17.6-48.2,17.6c-10.4,0-20.3-2.2-29.2-6.2c-0.8-0.3-1.5-0.7-2.3-1
	c0.7,0.3,1.4,0.7,2.1,1c-3.5-1.5-7.2-3.2-10.2-5.2v-0.1c0,0,0.3,0,0.4,0c-0.1-0.1-0.2-0.1-0.3-0.2c-0.1,0-0.1,0-0.2,0v0
	c2,0.2,4.2,0.3,6.3,0.3c0,0,0,0,0,0c0,0,0,0,0,0c10.5,0,20.3-3.1,28.4-8.4c0,0,0,0,0.1,0c0.2-0.1,0.4-0.3,0.7-0.4
	c0.9-0.6,1.8-1.3,2.7-2c-2.4-0.1-4.7-0.5-6.9-1.1c-8-2.4-14.4-8.6-17-16.5c0,0,0,0,0,0c0,0,0-0.1,0-0.1c0,0,0-0.1,0-0.1
	c0,0,0-0.2,0-0.2c0,0,0,0,0,0c0,0,0,0.1,0,0.1c0,0,0,0,0,0c0,0,0,0,0,0.1c0,0,0,0,0-0.1c0,0,0,0,0,0c0,0,0,0,0,0c0,0,0,0,0,0
	c0,0,0,0,0,0c0,0,0,0,0,0c0,0,0,0,0,0.1c0,0,0,0,0,0c0,0,0,0.1,0,0.1c1.6,0.3,3.2,0.5,4.8,0.5c2.2,0,4.3-0.3,6.3-0.8
	c-10.1-2.2-18-10.4-20-20.6c0-0.1,0-0.2-0.1-0.2c-0.1-0.6-0.2-1.1-0.2-1.7c0-0.2-0.1-0.4-0.1-0.6c-0.1-0.8-0.1-1.5-0.1-2.3
	c0-0.1,0-0.2,0-0.3c4,1.9,7.6,3.1,11.8,3.2c-3-2-5.5-4.6-7.4-7.6c-2.6-4-4-8.8-4-13.9c0-2.1,0.3-4.1,0.7-6c0.6-2.5,1.5-4.8,2.7-6.9
	c0,0,0,0,0,0c0,0,0,0,0,0c0,0,0,0,0,0c0,0,0,0,0,0c0,0,0,0,0,0c0,0,0,0,0,0c3.7,4.5,7.9,8.6,12.6,12.1c0.9,0.7,1.8,1.3,2.7,1.9
	c0.8,0.5,1.6,1.1,2.4,1.6c0.2,0.1,0.4,0.3,0.6,0.4c0.5,0.3,1.1,0.7,1.6,1c0.7,0.4,1.3,0.8,2,1.1c0.4,0.2,0.8,0.4,1.3,0.7
	c0.6,0.3,1.2,0.6,1.9,0.9c0.2,0.1,0.4,0.2,0.5,0.3c0.2,0.1,0.4,0.2,0.6,0.3c0.8,0.4,1.6,0.7,2.4,1c0.3,0.1,0.7,0.3,1,0.4
	c0.8,0.3,1.5,0.6,2.3,0.9c0.3,0.1,0.7,0.3,1,0.4c0.8,0.3,1.6,0.5,2.4,0.8c0.3,0.1,0.6,0.2,1,0.3c1,0.3,1.9,0.5,2.9,0.8
	c0.2,0,0.3,0.1,0.5,0.1c1.2,0.3,2.3,0.5,3.5,0.8c0.3,0.1,0.6,0.1,0.9,0.2c0.5,0.1,1,0.2,1.5,0.3c0,0,0.1,0,0.1,0c1,0.2,2,0.3,3,0.4
	c0.2,0,0.4,0,0.5,0.1c0,0,0,0,0,0c1.2,0.1,2.5,0.2,3.8,0.3c0,0,0.1,0,0.1,0c0,0,0,0,0,0c-0.1,0-0.2,0-0.2,0
	c-0.4-1.9-0.9-3.9-0.9-5.9c0,0,0,0,0,0c0,0,0,0,0,0c0,0,0,0,0,0c0-0.1,0-0.2,0-0.3c0.1-7.1,3.2-13.6,8-18.2c0.2-0.2,0.4-0.4,0.6-0.6
	c0,0,0.1,0,0.1-0.1c3.1-2.8,6.9-4.8,11-5.9c0,0,0.1,0,0.1,0c0.3-0.1,0.7-0.2,1-0.2c0,0,0.1,0,0.1,0c0.1,0,0.1,0,0.2,0
	c1.6-0.3,3.3-0.5,5-0.5c0.2,0,0.4,0,0.6,0c0.1,0,0.3,0,0.4,0c0.2,0,0.4,0,0.6,0c0.3,0,0.6,0,0.9,0.1c0.4,0,0.7,0.1,1.1,0.1
	c0.3,0,0.7,0.1,1,0.2c0.4,0.1,0.8,0.1,1.1,0.2c0.2,0.1,0.5,0.1,0.7,0.2c0.5,0.1,1,0.3,1.5,0.4c0.1,0,0.2,0.1,0.4,0.1
	c0.5,0.1,0.9,0.3,1.3,0.5c0.1,0.1,0.3,0.1,0.4,0.2c0.5,0.2,1.1,0.5,1.6,0.7c0.1,0,0.1,0.1,0.1,0.1c0.5,0.3,1,0.5,1.5,0.8
	c0.1,0,0.1,0.1,0.2,0.1c0.5,0.3,1,0.7,1.5,1c0,0,0,0,0,0c0,0,0,0,0,0c0.7,0.5,1.3,1,1.9,1.5c0,0,0,0,0,0c0.6,0.5,1.2,1.1,1.7,1.6
	c0,0,0,0,0,0c0,0,0,0,0,0c0,0-0.1,0-0.1,0s0,0,0,0.1c0,0,0,0,0.1,0.1c3-0.7,6.6-1.6,9.6-2.8c-0.9,0.4-1.8,0.7-2.8,1
	c0.2-0.1,0.4-0.1,0.6-0.2c0.7-0.3,1.5-0.5,2.2-0.8c0.9-0.3,1.7-0.7,2.6-1.1c0.8-0.4,1.6-0.8,2.5-1.2c0.6-0.3,1.1-0.6,1.7-0.9
	c0,0,0,0,0,0c0,0,0,0,0,0c0,0,0,0,0-0.1h0c0,0,0,0,0,0c0,0,0,0,0,0c0,0,0,0,0,0c0,0,0,0,0,0s0.3,0,0.4,0c0,0,0,0,0,0c0,0,0,0,0,0
	c0,0,0,0-0.1,0c-0.2,0.1-0.3,0.1-0.4,0.2c0,0.1-0.1,0.3-0.2,0.4c-0.2,0.5-0.3,0.9-0.5,1.3c-0.1,0.2-0.1,0.4-0.2,0.5
	c-0.1,0.2-0.1,0.3-0.2,0.5c-2.2,4.7-5.7,8.7-10.1,11.3c0.7-0.1,1.5-0.2,2.2-0.3c0.5-0.1,0.9-0.1,1.4-0.2c0.7-0.1,1.4-0.3,2.1-0.5
	c0.4-0.1,0.7-0.2,1.1-0.2c0.9-0.2,1.9-0.5,2.8-0.8c0.1,0,0.2-0.1,0.3-0.1c1.1-0.3,2.1-0.7,3.1-1.1c0.6-0.2,1.1-0.5,1.6-0.7
	c0,0,0,0,0,0c0,0,0,0,0,0c0,0,0,0,0,0c0,0,0,0,0,0c0,0,0,0,0.1,0C185.2,91.4,180.8,95.9,175.7,99.6z M175.9,102.8
	c0-1.1,0-2.2-0.1-3.2C175.8,100.7,175.9,101.7,175.9,102.8z"/>
</svg>
